<svg
	version="1.1"
	id="logo_1"
	xmlns="http://www.w3.org/2000/svg"
	xmlns:xlink="http://www.w3.org/1999/xlink"
	viewBox="0 325 816 400"
	preserveAspectRatio="xMidYMid meet"
	>
	<path fill="#000000" opacity="1.000000" stroke="none"
		d="
	M650.952026,589.252686
		C638.798462,589.253662 627.137024,589.130920 615.480896,589.323608
		C611.444519,589.390320 609.829590,588.097778 609.838257,583.922241
		C609.931396,539.283813 609.925537,494.645142 609.860840,450.006653
		C609.855286,446.171509 611.221680,444.707764 615.148560,444.759583
		C628.304688,444.933258 641.466553,444.960175 654.621765,444.758087
		C658.886658,444.692566 660.502197,445.938812 660.424011,450.424133
		C660.183105,464.244476 660.471619,478.073608 660.278259,491.895477
		C660.219604,496.084869 661.277771,497.948517 665.847961,497.776825
		C673.998047,497.470642 682.173035,497.515137 690.327271,497.758698
		C694.484375,497.882874 695.890381,496.364990 695.843445,492.267303
		C695.685242,478.444519 695.946411,464.616211 695.718140,450.795441
		C695.642151,446.195679 697.189331,444.676025 701.767761,444.757263
		C714.755371,444.987854 727.752869,444.981354 740.740173,444.736267
		C745.185730,444.652374 746.417664,446.223114 746.405884,450.526489
		C746.284241,494.831757 746.292236,539.137573 746.413086,583.442871
		C746.424561,587.636169 745.399902,589.419250 740.846436,589.333801
		C727.692688,589.086853 714.528748,589.099304 701.374268,589.324951
		C696.838989,589.402771 695.698425,587.542358 695.744934,583.381714
		C695.903320,569.225830 695.634827,555.064392 695.866577,540.910583
		C695.941833,536.316772 694.372498,534.710938 689.844666,534.835449
		C681.523254,535.064270 673.185364,535.052368 664.865051,534.793579
		C661.264526,534.681519 660.262573,535.962097 660.295837,539.379028
		C660.428589,553.035828 660.377502,566.694824 660.334595,580.352783
		C660.305054,589.778564 661.374084,589.229431 650.952026,589.252686
	z"/>
	<path fill="#000000" opacity="1.000000" stroke="none"
		d="
	M461.696594,541.448853
		C460.882416,550.605957 458.990906,559.010071 454.800598,566.756958
		C446.808014,581.533447 433.387177,588.239990 417.640839,590.886292
		C399.756561,593.891846 381.842712,593.918396 364.144470,589.293823
		C342.869476,583.734741 330.269562,568.776001 327.595703,546.784546
		C325.997742,533.641724 326.855286,520.494324 326.704346,507.352142
		C326.489990,488.689423 326.780640,470.020660 326.531891,451.358795
		C326.466888,446.483368 327.641083,444.542297 332.903839,444.689606
		C345.559570,445.043915 358.235474,444.985687 370.895477,444.721893
		C375.682434,444.622162 377.258270,446.181335 377.223145,450.999115
		C377.034760,476.828918 377.128265,502.660736 377.131836,528.491882
		C377.132141,530.657959 377.143280,532.825623 377.224274,534.989807
		C377.666046,546.793762 383.693085,552.914124 394.748260,552.817383
		C405.279663,552.725220 411.478638,546.296387 411.617737,534.706970
		C411.809723,518.710571 411.678619,502.710297 411.683350,486.711670
		C411.686981,474.546021 411.820648,462.378143 411.614594,450.216003
		C411.543488,446.017944 413.096771,444.711609 417.161194,444.764954
		C430.491089,444.939911 443.824829,444.862640 457.156799,444.807251
		C460.158966,444.794800 462.330444,445.176697 462.313538,449.034729
		C462.182831,478.863983 462.160919,508.693726 462.088104,538.523254
		C462.086090,539.349670 461.891022,540.175598 461.696594,541.448853
	z"/>
	<path fill="#000000" opacity="1.000000" stroke="none"
		d="
	M74.597626,560.999634
		C74.587059,532.521667 74.688751,504.542877 74.499710,476.566040
		C74.439003,467.581909 74.198128,458.607239 74.436592,449.617279
		C74.532410,446.004852 75.510551,444.674652 79.302521,444.700745
		C103.116112,444.864532 126.933678,444.618134 150.744598,444.923370
		C160.573120,445.049347 170.286407,446.622925 179.372559,450.868164
		C197.066757,459.135254 205.273682,473.580719 206.267624,492.517578
		C206.676666,500.310364 206.786087,508.151520 205.006851,515.878235
		C199.702271,538.914307 181.476318,553.620056 157.077850,554.271118
		C148.590057,554.497681 140.092361,554.350830 131.599213,554.379944
		C125.088905,554.402283 125.066055,554.406067 125.041214,561.144592
		C125.012970,568.805115 124.928459,576.467712 125.071831,584.125610
		C125.144241,587.993286 123.607445,589.366516 119.729523,589.320007
		C106.242142,589.158264 92.750252,589.163452 79.262924,589.332520
		C75.240829,589.382874 74.018372,587.748291 74.165634,583.964905
		C74.456879,576.482178 74.469376,568.988708 74.597626,560.999634
	M125.040527,488.690552
		C125.037422,493.172760 125.035652,497.654968 125.030968,502.137177
		C125.013214,519.121460 125.914375,519.889282 142.937119,517.388672
		C151.506027,516.129883 155.579758,512.078613 156.517334,503.480103
		C156.893448,500.030762 156.816772,496.553802 155.894852,493.104340
		C154.043579,486.177734 149.981018,482.648529 142.839767,482.356354
		C138.696045,482.186798 134.524673,482.523285 130.395096,482.225311
		C126.130402,481.917633 124.652489,483.806885 125.040527,488.690552
	z"/>
	<path fill="#000000" opacity="1.000000" stroke="none"
		d="
	M596.134583,484.354401
		C596.431274,492.276825 596.431274,492.284393 589.074524,492.285614
		C578.080261,492.287445 567.085144,492.202606 556.092163,492.318115
		C552.812683,492.352570 551.151062,491.626038 550.375183,487.902130
		C548.096069,476.963440 533.129700,471.982849 524.394348,478.957550
		C519.619751,482.769897 520.468323,490.215515 526.231323,493.641235
		C530.860779,496.393097 536.071167,497.584686 541.289062,498.751923
		C555.765259,501.990234 569.885803,505.931183 582.934448,513.567932
		C604.934326,526.443481 604.442688,565.428955 584.386841,579.708557
		C574.450012,586.783447 563.372498,590.360718 551.482300,591.756287
		C533.946533,593.814453 516.517578,593.511292 499.850250,586.908875
		C481.700592,579.719421 471.971039,566.136353 470.435516,546.590698
		C470.136139,542.780396 471.276947,541.556824 475.018341,541.598877
		C487.676758,541.741394 500.338654,541.727844 512.997314,541.594971
		C516.252014,541.560791 517.716309,542.642456 518.340149,545.945251
		C519.821655,553.788452 524.076538,557.289062 532.078979,557.845703
		C535.410522,558.077454 538.762939,558.141846 542.024902,557.365295
		C546.695984,556.253357 549.691589,553.374512 550.219788,548.466858
		C550.712280,543.891174 548.932495,540.304749 544.819946,538.109741
		C537.711487,534.315735 529.984375,532.234802 522.234680,530.291687
		C513.191162,528.024048 504.201172,525.672546 495.629425,521.872742
		C481.346222,515.541260 473.406219,504.918060 472.697296,489.113068
		C471.927887,471.960632 478.041199,458.393494 493.576630,450.164703
		C509.612091,441.670990 527.027588,440.843414 544.662537,442.173615
		C548.957275,442.497620 553.262573,443.208313 557.462097,444.178223
		C578.829956,449.113251 592.699585,461.438232 596.134583,484.354401
	z"/>
	<path fill="#000000" opacity="1.000000" stroke="none"
		d="
	M265.871033,498.149017
		C265.705780,514.287170 265.689972,529.946716 265.283752,545.596191
		C265.157959,550.441650 266.781647,551.925110 271.561157,551.832764
		C285.384277,551.565796 299.218536,551.887329 313.042511,551.643982
		C317.670868,551.562561 319.639191,552.752441 319.433899,557.755676
		C319.078979,566.404541 319.186646,575.082458 319.406677,583.740356
		C319.508392,587.741760 318.322784,589.341553 314.069458,589.323425
		C282.748260,589.190308 251.426056,589.207153 220.104660,589.317627
		C216.101608,589.331726 214.916000,587.710388 214.921707,583.955322
		C214.989288,539.471924 214.998825,494.988251 214.909286,450.504913
		C214.900558,446.174042 216.501785,444.682709 220.814590,444.745483
		C234.140076,444.939514 247.471924,444.919495 260.797699,444.728943
		C264.623840,444.674225 265.550781,446.068848 265.522430,449.700592
		C265.397614,465.688812 265.038757,481.683807 265.871033,498.149017
	z"/>
	<path fill="#000000" opacity="1.000000" stroke="none"
		d="
	M398.422607,616.594116
		C402.706970,613.884766 404.127869,614.411865 404.227783,618.606750
		C404.386261,625.258789 404.318909,631.917297 404.262939,638.572449
		C404.248322,640.310059 404.721313,642.500183 402.230011,643.070312
		C399.832550,643.618774 397.619110,643.361389 396.103088,640.981934
		C393.958038,637.615356 391.781189,634.264771 389.486450,630.999695
		C388.390442,629.440247 387.728333,627.460327 385.045776,626.134033
		C385.045776,630.682129 385.079193,634.769348 385.032623,638.855713
		C385.006775,641.122253 384.801178,643.348511 381.626343,643.191406
		C378.708008,643.046997 378.791656,640.890198 378.781189,638.869202
		C378.748383,632.546448 378.696930,626.222534 378.792572,619.901245
		C378.820435,618.058411 378.045746,615.574219 380.791382,614.901978
		C383.564911,614.222961 385.890869,614.769348 387.608643,617.557495
		C390.537384,622.311340 393.794464,626.862854 396.913635,631.499390
		C397.370819,631.406616 397.828003,631.313843 398.285187,631.221069
		C398.285187,626.487366 398.285187,621.753601 398.422607,616.594116
	z"/>
	<path fill="#000000" opacity="1.000000" stroke="none"
		d="
	M537.576294,629.550110
		C536.509521,628.376953 536.393311,626.752075 534.040039,626.418335
		C534.040039,630.631042 534.077271,634.723572 534.025330,638.815002
		C533.996582,641.072571 533.811340,643.327271 530.633667,643.192017
		C527.715088,643.067810 527.777039,640.919861 527.767944,638.882629
		C527.738953,632.383545 527.704041,625.883972 527.760254,619.385376
		C527.775269,617.643738 527.319641,615.413391 529.815735,614.900085
		C532.130859,614.423950 534.424683,614.345581 536.011597,616.802673
		C539.229370,621.784607 542.567993,626.688416 547.063477,631.411743
		C547.063477,627.509338 546.998657,623.605469 547.088196,619.705078
		C547.140076,617.446045 546.724060,614.710815 550.367065,614.770691
		C553.743896,614.826172 553.266846,617.364441 553.281250,619.453613
		C553.325867,625.952454 553.312134,632.452148 553.259399,638.950928
		C553.246338,640.556030 553.598999,642.584167 551.395874,643.059814
		C549.274963,643.517700 547.043274,643.688904 545.555725,641.458435
		C542.967712,637.577820 540.361877,633.709106 537.576294,629.550110
	z"/>
	<path fill="#000000" opacity="1.000000" stroke="none"
		d="
	M449.290894,614.992493
		C453.230438,614.782593 456.714508,614.654846 460.197357,614.682068
		C469.650330,614.755981 472.354370,619.379944 467.788391,627.944031
		C468.589478,629.048950 469.578217,630.161011 470.282715,631.430725
		C472.551666,635.520142 470.933197,640.397278 466.639099,642.255920
		C465.302277,642.834534 463.761566,643.237305 462.317383,643.227844
		C444.383331,643.110901 447.964203,645.734924 447.774750,629.745911
		C447.717346,624.902649 446.372314,619.847534 449.290894,614.992493
	M463.252441,637.095337
		C465.432800,634.961548 465.388733,632.491699 462.511017,631.796631
		C459.671204,631.110657 455.735718,629.357300 453.763580,633.214478
		C452.775787,635.146423 453.004822,638.014648 456.671204,637.842651
		C458.632660,637.750671 460.590790,637.588684 463.252441,637.095337
	M453.729767,623.976990
		C456.271240,627.529663 459.562225,625.734009 462.510040,624.963623
		C463.895142,624.601624 464.159393,622.780273 463.248596,621.601379
		C461.437531,619.257141 458.708069,620.256653 456.326202,620.117981
		C454.106781,619.988770 453.467987,621.327881 453.729767,623.976990
	z"/>
	<path fill="#000000" opacity="1.000000" stroke="none"
		d="
	M432.899323,628.684448
		C433.738983,638.578979 429.796082,643.510559 421.227844,643.904358
		C413.251434,644.270935 407.908875,638.761353 407.694916,629.948242
		C407.387421,617.283081 415.896332,610.730774 426.896271,615.170837
		C429.464203,616.207336 431.511017,617.837463 432.578430,620.476562
		C433.207062,622.030823 434.025574,623.881836 432.086029,624.880249
		C430.406097,625.744873 428.493652,625.616089 427.330902,623.586426
		C425.596039,620.557983 423.096802,618.708740 419.517090,619.649780
		C414.963837,620.846863 414.038055,624.513733 414.056702,628.640930
		C414.075592,632.816406 414.440796,636.954285 419.357971,638.211304
		C422.752808,639.079224 425.521301,637.872559 426.873932,634.308899
		C425.572083,632.495544 423.704926,633.480164 422.193970,633.087769
		C420.692108,632.697815 419.851166,631.894592 419.888763,630.316162
		C419.920685,628.975708 420.615051,627.893799 421.937622,627.937866
		C425.523407,628.057312 429.181427,626.397522 432.899323,628.684448
	z"/>
	<path fill="#000000" opacity="1.000000" stroke="none"
		d="
	M568.827087,643.316711
		C557.327393,643.177002 557.963989,645.054382 558.007385,632.877991
		C558.022827,628.555969 558.111816,624.230591 557.976196,619.912720
		C557.860107,616.216919 559.106812,614.228271 563.151611,614.643005
		C565.125305,614.845337 567.137756,614.655518 569.132507,614.669373
		C578.860596,614.736755 583.208923,619.012573 583.291870,628.579773
		C583.378296,638.550354 579.216187,642.932434 568.827087,643.316711
	M576.817810,627.724365
		C576.790100,627.228027 576.815552,626.721924 576.726318,626.236938
		C575.816895,621.297485 573.179199,619.594788 567.792236,620.039917
		C562.837219,620.449463 564.563599,624.149780 564.333618,626.784546
		C564.118408,629.250671 564.361877,631.753296 564.291809,634.236694
		C564.221313,636.734863 565.329285,637.736755 567.832642,637.890991
		C574.175964,638.281982 576.546326,635.921875 576.817810,627.724365
	z"/>
	<path fill="#000000" opacity="1.000000" stroke="none"
		d="
	M310.851593,638.581177
		C305.443878,644.377441 297.262878,645.454224 291.765930,641.391846
		C286.491791,637.493958 284.841675,627.110046 288.410492,620.276428
		C291.254150,614.831360 298.127594,612.565613 304.920380,614.834229
		C311.381500,616.992126 314.697723,624.140564 313.018646,632.642334
		C312.638611,634.566650 311.730530,636.386536 310.851593,638.581177
	M304.366394,636.752197
		C307.919403,632.953918 307.325439,628.396790 306.248840,624.034668
		C305.352936,620.404907 301.189606,618.593811 297.866516,619.797668
		C293.595215,621.345032 291.566711,627.979065 293.592987,633.773804
		C295.052795,637.948486 298.753662,639.196167 304.366394,636.752197
	z"/>
	<path fill="#000000" opacity="1.000000" stroke="none"
		d="
	M496.947815,626.178345
		C494.942108,628.733093 494.450256,630.794312 495.896667,633.690186
		C497.179413,636.258362 497.950592,639.311462 497.172516,642.604553
		C493.049164,644.563110 491.460419,642.253784 490.856049,638.650146
		C490.381805,635.822205 489.697540,633.482727 486.207031,633.229309
		C482.526917,632.962158 479.964661,633.585938 480.317535,638.201904
		C480.481689,640.349548 481.007477,643.327942 477.248322,643.122498
		C473.898682,642.939392 474.649933,640.177979 474.622101,638.198730
		C474.533417,631.884460 474.762451,625.563660 474.585205,619.253418
		C474.487030,615.758362 475.842133,614.429260 479.253937,614.645203
		C481.902252,614.812805 484.571167,614.622437 487.229401,614.673035
		C495.386932,614.828491 497.713409,617.472656 496.947815,626.178345
	M486.173126,620.036865
		C484.100098,620.400574 481.144379,619.044617 480.554901,622.418274
		C480.209869,624.392822 479.634949,627.132935 482.746063,627.510742
		C485.741608,627.874634 489.394684,628.693115 490.844299,624.817444
		C492.046204,621.603943 489.851471,620.388306 486.173126,620.036865
	z"/>
	<path fill="#000000" opacity="1.000000" stroke="none"
		d="
	M356.501678,632.728882
		C353.594482,630.438049 350.535797,631.494385 347.620087,631.451721
		C345.725616,631.424011 345.180420,632.877869 345.121277,634.537659
		C345.050171,636.532471 345.041382,638.531799 344.894653,640.520935
		C344.765411,642.273193 343.776184,643.198303 341.952545,643.197510
		C340.244934,643.196838 338.877380,642.635498 338.859528,640.749512
		C338.785522,632.930298 338.793427,625.109985 338.821899,617.290283
		C338.828827,615.395020 340.051880,614.766113 341.802063,614.755554
		C343.569489,614.744751 344.665710,615.480347 344.900299,617.272400
		C345.007904,618.094177 345.143616,618.951965 345.024475,619.757568
		C344.220886,625.191345 347.109100,626.108276 351.763214,625.978516
		C355.629272,625.870789 357.335358,624.613586 356.944244,620.707336
		C356.829651,619.562744 356.966095,618.377625 357.109222,617.226196
		C357.332275,615.431946 358.453613,614.702820 360.223663,614.740356
		C361.961334,614.777161 363.195526,615.406433 363.202057,617.300415
		C363.228943,625.120911 363.230225,632.941772 363.165497,640.761963
		C363.149841,642.655396 361.836334,643.238831 360.108795,643.221985
		C358.313599,643.204407 357.253998,642.325806 357.100891,640.579529
		C356.883301,638.098022 356.811981,635.603577 356.501678,632.728882
	z"/>
	<path fill="#000000" opacity="1.000000" stroke="none"
		d="
	M255.366211,621.664917
		C249.904999,618.469727 246.328842,619.209106 244.390198,623.612427
		C241.922974,629.216309 243.759933,636.381348 248.186386,637.974121
		C251.852982,639.293579 254.847992,638.126343 256.488190,634.638489
		C257.630707,632.208862 259.249908,631.069214 261.552307,632.233948
		C264.505463,633.728088 262.586517,636.063843 261.714478,637.794617
		C259.205841,642.773743 254.542862,644.016052 249.508530,643.807922
		C244.311401,643.593079 240.340637,641.306702 238.433197,636.048889
		C234.687271,625.723389 238.960571,615.832581 248.015854,614.161072
		C253.826691,613.088440 259.865356,615.757141 261.909332,620.521118
		C262.615784,622.167664 264.358582,624.353455 261.578888,625.656250
		C259.534424,626.614380 257.689667,625.826721 256.652649,623.634949
		C256.370636,623.038879 255.969452,622.499268 255.366211,621.664917
	z"/>
	<path fill="#000000" opacity="1.000000" stroke="none"
		d="
	M499.100037,641.954651
		C500.994843,633.129028 504.553131,625.229248 507.661926,617.181763
		C508.908173,613.955627 514.923462,613.366577 516.196106,616.371155
		C519.796326,624.870972 523.242859,633.465332 525.748413,642.495911
		C522.362366,643.881531 519.936890,643.613525 518.861450,640.339172
		C517.643005,636.629456 514.703369,637.114380 511.905426,637.089294
		C509.218384,637.065247 506.528351,636.872375 505.485199,640.342529
		C504.433716,643.840454 502.055969,643.954346 499.100037,641.954651
	M509.725067,628.103271
		C508.789856,633.734070 512.512817,631.191284 515.091492,631.413208
		C514.942993,627.860046 513.753723,625.100525 512.052917,621.570312
		C511.168945,624.070557 510.577454,625.743530 509.725067,628.103271
	z"/>
	<path fill="#000000" opacity="1.000000" stroke="none"
		d="
	M328.304077,629.077454
		C328.302612,632.717529 328.323822,635.872192 328.293213,639.026367
		C328.273376,641.067505 328.301361,643.157898 325.361847,643.226257
		C322.187988,643.300110 322.035706,641.104919 322.019897,638.844299
		C321.987366,634.195862 321.906403,629.544312 322.039825,624.899536
		C322.134186,621.614258 320.979004,619.886597 317.474548,620.014099
		C315.652466,620.080444 313.638000,620.078003 313.648682,617.335571
		C313.659241,614.615417 315.601959,614.674011 317.469055,614.670654
		C322.947449,614.660828 328.426086,614.656128 333.904236,614.698303
		C335.444214,614.710144 336.979767,614.906006 337.128784,616.963501
		C337.264282,618.834229 336.193939,620.010071 334.512695,619.847107
		C327.195557,619.138000 328.286957,624.207275 328.304077,629.077454
	z"/>
	<path fill="#000000" opacity="1.000000" stroke="none"
		d="
	M271.195007,643.325073
		C267.679993,643.595215 265.998718,642.397888 266.018738,639.154541
		C266.060699,632.360474 266.004730,625.565674 266.069916,618.771912
		C266.089844,616.697571 266.421234,614.740417 269.286987,614.767639
		C272.222046,614.795471 272.276886,616.784302 272.282654,618.862732
		C272.296021,623.668884 272.446411,628.481079 272.251434,633.279114
		C272.109985,636.759460 273.497467,638.108704 276.906799,637.891968
		C279.045044,637.755981 281.211731,637.898254 283.354675,638.060608
		C284.935211,638.180481 285.643402,639.303040 285.652802,640.795288
		C285.663177,642.441772 284.605804,643.183960 283.102448,643.216064
		C279.292419,643.297607 275.480591,643.296448 271.195007,643.325073
	z"/>
	<path fill="#000000" opacity="1.000000" stroke="none"
		d="
	M374.296692,634.923462
		C373.527252,638.156250 376.429596,643.168884 370.925903,642.988220
		C366.005554,642.826721 368.258698,638.133484 368.087433,635.436646
		C367.741516,629.991516 367.960114,624.508240 368.013641,619.041321
		C368.035736,616.785034 368.276917,614.616577 371.444489,614.760071
		C374.409180,614.894348 374.258301,617.033447 374.272827,619.028076
		C374.310181,624.164001 374.291138,629.300354 374.296692,634.923462
	z"/>
</svg>